<svg preserveAspectRatio="none" overflow="visible" style="display: block;" width="20" height="20" viewBox="0 0 20 20" fill="none" xmlns="http://www.w3.org/2000/svg">
<g id="Linear / Time / Calendar">
<path id="Vector" d="M1.66667 10C1.66667 6.8573 1.66667 5.28595 2.64298 4.30964C3.61929 3.33333 5.19064 3.33333 8.33333 3.33333H11.6667C14.8094 3.33333 16.3807 3.33333 17.357 4.30964C18.3333 5.28595 18.3333 6.8573 18.3333 10V11.6667C18.3333 14.8094 18.3333 16.3807 17.357 17.357C16.3807 18.3333 14.8094 18.3333 11.6667 18.3333H8.33333C5.19064 18.3333 3.61929 18.3333 2.64298 17.357C1.66667 16.3807 1.66667 14.8094 1.66667 11.6667V10Z" stroke="#F6F8ED" stroke-width="1.5"/>
<path id="Vector_2" d="M5.83333 3.33333V2.08333" stroke="#F6F8ED" stroke-width="1.5" stroke-linecap="round"/>
<path id="Vector_3" d="M14.1667 3.33333V2.08333" stroke="#F6F8ED" stroke-width="1.5" stroke-linecap="round"/>
<path id="Vector_4" d="M2.08333 7.5H17.9167" stroke="#F6F8ED" stroke-width="1.5" stroke-linecap="round"/>
<g id="Vector_5">
<path d="M15 14.1667C15 14.6269 14.6269 15 14.1667 15C13.7064 15 13.3333 14.6269 13.3333 14.1667C13.3333 13.7064 13.7064 13.3333 14.1667 13.3333C14.6269 13.3333 15 13.7064 15 14.1667Z" fill="#F6F8ED"/>
<path d="M15 10.8333C15 11.2936 14.6269 11.6667 14.1667 11.6667C13.7064 11.6667 13.3333 11.2936 13.3333 10.8333C13.3333 10.3731 13.7064 10 14.1667 10C14.6269 10 15 10.3731 15 10.8333Z" fill="#F6F8ED"/>
</g>
<g id="Vector_6">
<path d="M10.8333 14.1667C10.8333 14.6269 10.4602 15 10 15C9.53976 15 9.16667 14.6269 9.16667 14.1667C9.16667 13.7064 9.53976 13.3333 10 13.3333C10.4602 13.3333 10.8333 13.7064 10.8333 14.1667Z" fill="#F6F8ED"/>
<path d="M10.8333 10.8333C10.8333 11.2936 10.4602 11.6667 10 11.6667C9.53976 11.6667 9.16667 11.2936 9.16667 10.8333C9.16667 10.3731 9.53976 10 10 10C10.4602 10 10.8333 10.3731 10.8333 10.8333Z" fill="#F6F8ED"/>
</g>
<g id="Vector_7">
<path d="M6.66667 14.1667C6.66667 14.6269 6.29357 15 5.83333 15C5.3731 15 5 14.6269 5 14.1667C5 13.7064 5.3731 13.3333 5.83333 13.3333C6.29357 13.3333 6.66667 13.7064 6.66667 14.1667Z" fill="#F6F8ED"/>
<path d="M6.66667 10.8333C6.66667 11.2936 6.29357 11.6667 5.83333 11.6667C5.3731 11.6667 5 11.2936 5 10.8333C5 10.3731 5.3731 10 5.83333 10C6.29357 10 6.66667 10.3731 6.66667 10.8333Z" fill="#F6F8ED"/>
</g>
</g>
</svg>
